<svg id="Calque_1" data-name="Calque 1" xmlns="http://www.w3.org/2000/svg" xmlns:xlink="http://www.w3.org/1999/xlink" viewBox="0 0 444 602"><defs><style>.cls-1{fill:#212121;}.cls-2{opacity:0.15;}.cls-3{fill:url(#Dégradé_sans_nom_3);}.cls-4{fill:url(#Dégradé_sans_nom_3-2);}.cls-5{fill:url(#Dégradé_sans_nom_3-3);}.cls-6{fill:url(#Dégradé_sans_nom_3-4);}.cls-7{fill:url(#Dégradé_sans_nom_3-5);}.cls-8{fill:url(#Dégradé_sans_nom_3-6);}.cls-9{fill:url(#Dégradé_sans_nom_3-7);}.cls-10{fill:url(#Dégradé_sans_nom_3-8);}.cls-11{fill:url(#Dégradé_sans_nom_3-9);}.cls-12{fill:url(#Dégradé_sans_nom_3-10);}.cls-13{fill:url(#Dégradé_sans_nom_3-11);}.cls-14{fill:url(#Dégradé_sans_nom_3-12);}.cls-15{fill:url(#Dégradé_sans_nom_3-13);}.cls-16{fill:url(#Dégradé_sans_nom_3-14);}.cls-17{fill:url(#Dégradé_sans_nom_3-15);}.cls-18{fill:url(#Dégradé_sans_nom_3-16);}.cls-19{fill:none;stroke:#c6b8a8;stroke-miterlimit:10;stroke-width:6px;}</style><linearGradient id="Dégradé_sans_nom_3" x1="29.66" y1="3.42" x2="413.85" y2="532.21" gradientUnits="userSpaceOnUse"><stop offset="0" stop-color="#f2f2f2"/><stop offset="0.02" stop-color="#ebebeb"/><stop offset="0.16" stop-color="#b6b6b6"/><stop offset="0.3" stop-color="#888"/><stop offset="0.45" stop-color="#636363"/><stop offset="0.59" stop-color="#464646"/><stop offset="0.73" stop-color="#323232"/><stop offset="0.87" stop-color="#252525"/><stop offset="1" stop-color="#212121"/></linearGradient><linearGradient id="Dégradé_sans_nom_3-2" x1="41.14" y1="5.4" x2="408.55" y2="511.09" xlink:href="#Dégradé_sans_nom_3"/><linearGradient id="Dégradé_sans_nom_3-3" x1="52.89" y1="7.15" x2="412.6" y2="502.25" xlink:href="#Dégradé_sans_nom_3"/><linearGradient id="Dégradé_sans_nom_3-4" x1="65.44" y1="8.97" x2="420.48" y2="497.64" xlink:href="#Dégradé_sans_nom_3"/><linearGradient id="Dégradé_sans_nom_3-5" x1="78.97" y1="11.75" x2="429.31" y2="493.95" xlink:href="#Dégradé_sans_nom_3"/><linearGradient id="Dégradé_sans_nom_3-6" x1="84.63" y1="22.04" x2="429.54" y2="496.77" xlink:href="#Dégradé_sans_nom_3"/><linearGradient id="Dégradé_sans_nom_3-7" x1="65.69" y1="46" x2="410.31" y2="520.33" xlink:href="#Dégradé_sans_nom_3"/><linearGradient id="Dégradé_sans_nom_3-8" x1="17.17" y1="108.01" x2="366.78" y2="589.2" xlink:href="#Dégradé_sans_nom_3"/><linearGradient id="Dégradé_sans_nom_3-9" x1="27.26" y1="106.45" x2="379.32" y2="591.01" xlink:href="#Dégradé_sans_nom_3"/><linearGradient id="Dégradé_sans_nom_3-10" x1="27.07" y1="91.96" x2="393.81" y2="596.75" xlink:href="#Dégradé_sans_nom_3"/><linearGradient id="Dégradé_sans_nom_3-11" x1="34.16" y1="84.24" x2="406.77" y2="597.1" xlink:href="#Dégradé_sans_nom_3"/><linearGradient id="Dégradé_sans_nom_3-12" x1="28.04" y1="60.79" x2="418.6" y2="598.34" xlink:href="#Dégradé_sans_nom_3"/><linearGradient id="Dégradé_sans_nom_3-13" x1="17.28" y1="30.34" x2="428.32" y2="596.08" xlink:href="#Dégradé_sans_nom_3"/><linearGradient id="Dégradé_sans_nom_3-14" x1="14.93" y1="93.74" x2="368.05" y2="579.77" xlink:href="#Dégradé_sans_nom_3"/><linearGradient id="Dégradé_sans_nom_3-15" x1="42.87" y1="75.17" x2="384.96" y2="546.02" xlink:href="#Dégradé_sans_nom_3"/><linearGradient id="Dégradé_sans_nom_3-16" x1="19.23" y1="3.89" x2="430.26" y2="569.63" xlink:href="#Dégradé_sans_nom_3"/></defs><title>bouton expo</title><rect class="cls-1" width="444" height="602"/><g class="cls-2"><path class="cls-3" d="M38,94.48,132.05,8.17H82.22L13.33,71.39v45.73Z"/><path class="cls-4" d="M71.77,118.78,192.31,8.17h-45.4L13.33,130.75v41.67Z"/><path class="cls-5" d="M90,159.77,242.45,19.88,255.21,8.17H207.16L13.33,186.05v44.1Z"/><path class="cls-6" d="M322.55,8.17H270.07l-106,97.28L13.33,243.78V292Z"/><path class="cls-7" d="M99.42,276.37,273.56,116.56,391.66,8.17H337.4L13.33,305.58v49.8Z"/><path class="cls-8" d="M95.08,341.34,262,188.12,429.47,34.46a5.23,5.23,0,0,1,2.86-1.38V8.17H406.52L357.17,53.46l-174,159.64L13.33,369v47.36Z"/><path class="cls-9" d="M108.18,392.42l191-175.27L432.33,94.92V45.13L342,128,174.86,281.42,13.33,429.67v49.79Z"/><path class="cls-10" d="M203.66,506,432.33,296.11V247.94L242.87,421.82,56.17,593.17h52.49Z"/><path class="cls-11" d="M232.5,536.43,432.33,353V309.74L287.25,442.89,123.51,593.17h47.17Z"/><polygon class="cls-12" points="432.33 422.96 432.33 366.66 185.53 593.17 246.88 593.17 432.33 422.96"/><polygon class="cls-13" points="432.33 483.14 432.33 436.6 261.73 593.17 312.45 593.17 432.33 483.14"/><path class="cls-14" d="M432.33,545.75v-49l-105,96.4h53.37Z"/><polygon class="cls-15" points="395.52 593.17 432.33 593.17 432.33 559.38 395.52 593.17"/><path class="cls-16" d="M150.22,493.22,345,314.43l87.3-80.12V166.62l-10.95,10L216.05,365.12l-202.72,186v42h28Z"/><path class="cls-17" d="M118.93,440.29,324.26,251.84l108.07-99.18V108.55L390,147.38,198.88,322.8,13.33,493.09V537.2Z"/><polygon class="cls-18" points="67.37 8.17 13.33 8.17 13.33 57.76 67.37 8.17"/></g><rect class="cls-19" x="10" y="8.02" width="425" height="586"/></svg>