<svg id="Calque_1" data-name="Calque 1" xmlns="http://www.w3.org/2000/svg" xmlns:xlink="http://www.w3.org/1999/xlink" viewBox="0 0 419 585"><defs><style>.cls-1{opacity:0.15;}.cls-2{fill:url(#Dégradé_sans_nom_3);}.cls-3{fill:url(#Dégradé_sans_nom_3-2);}.cls-4{fill:url(#Dégradé_sans_nom_3-3);}.cls-5{fill:url(#Dégradé_sans_nom_3-4);}.cls-6{fill:url(#Dégradé_sans_nom_3-5);}.cls-7{fill:url(#Dégradé_sans_nom_3-6);}.cls-8{fill:url(#Dégradé_sans_nom_3-7);}.cls-9{fill:url(#Dégradé_sans_nom_3-8);}.cls-10{fill:url(#Dégradé_sans_nom_3-9);}.cls-11{fill:url(#Dégradé_sans_nom_3-10);}.cls-12{fill:url(#Dégradé_sans_nom_3-11);}.cls-13{fill:url(#Dégradé_sans_nom_3-12);}.cls-14{fill:url(#Dégradé_sans_nom_3-13);}.cls-15{fill:url(#Dégradé_sans_nom_3-14);}.cls-16{fill:url(#Dégradé_sans_nom_3-15);}.cls-17{fill:url(#Dégradé_sans_nom_3-16);}</style><linearGradient id="Dégradé_sans_nom_3" x1="16.33" y1="-4.75" x2="400.52" y2="524.04" gradientUnits="userSpaceOnUse"><stop offset="0" stop-color="#f2f2f2"/><stop offset="0.02" stop-color="#ebebeb"/><stop offset="0.16" stop-color="#b6b6b6"/><stop offset="0.3" stop-color="#888"/><stop offset="0.45" stop-color="#636363"/><stop offset="0.59" stop-color="#464646"/><stop offset="0.73" stop-color="#323232"/><stop offset="0.87" stop-color="#252525"/><stop offset="1" stop-color="#212121"/></linearGradient><linearGradient id="Dégradé_sans_nom_3-2" x1="27.81" y1="-2.77" x2="395.21" y2="502.92" xlink:href="#Dégradé_sans_nom_3"/><linearGradient id="Dégradé_sans_nom_3-3" x1="39.56" y1="-1.02" x2="399.27" y2="494.08" xlink:href="#Dégradé_sans_nom_3"/><linearGradient id="Dégradé_sans_nom_3-4" x1="52.1" y1="0.81" x2="407.14" y2="489.48" xlink:href="#Dégradé_sans_nom_3"/><linearGradient id="Dégradé_sans_nom_3-5" x1="65.64" y1="3.59" x2="415.98" y2="485.78" xlink:href="#Dégradé_sans_nom_3"/><linearGradient id="Dégradé_sans_nom_3-6" x1="71.29" y1="13.88" x2="416.2" y2="488.6" xlink:href="#Dégradé_sans_nom_3"/><linearGradient id="Dégradé_sans_nom_3-7" x1="52.35" y1="37.84" x2="396.98" y2="512.17" xlink:href="#Dégradé_sans_nom_3"/><linearGradient id="Dégradé_sans_nom_3-8" x1="3.84" y1="99.84" x2="353.44" y2="581.03" xlink:href="#Dégradé_sans_nom_3"/><linearGradient id="Dégradé_sans_nom_3-9" x1="13.93" y1="98.28" x2="365.98" y2="582.85" xlink:href="#Dégradé_sans_nom_3"/><linearGradient id="Dégradé_sans_nom_3-10" x1="13.73" y1="83.79" x2="380.48" y2="588.58" xlink:href="#Dégradé_sans_nom_3"/><linearGradient id="Dégradé_sans_nom_3-11" x1="20.82" y1="76.08" x2="393.44" y2="588.94" xlink:href="#Dégradé_sans_nom_3"/><linearGradient id="Dégradé_sans_nom_3-12" x1="14.71" y1="52.62" x2="405.26" y2="590.18" xlink:href="#Dégradé_sans_nom_3"/><linearGradient id="Dégradé_sans_nom_3-13" x1="3.95" y1="22.17" x2="414.99" y2="587.92" xlink:href="#Dégradé_sans_nom_3"/><linearGradient id="Dégradé_sans_nom_3-14" x1="1.6" y1="85.57" x2="354.72" y2="571.6" xlink:href="#Dégradé_sans_nom_3"/><linearGradient id="Dégradé_sans_nom_3-15" x1="29.53" y1="67.01" x2="371.62" y2="537.85" xlink:href="#Dégradé_sans_nom_3"/><linearGradient id="Dégradé_sans_nom_3-16" x1="5.89" y1="-4.28" x2="416.93" y2="561.47" xlink:href="#Dégradé_sans_nom_3"/></defs><title>fond opacié</title><g class="cls-1"><path class="cls-2" d="M24.67,86.31,118.72,0H68.89L0,63.22V109Z"/><path class="cls-3" d="M58.44,110.62,179,0h-45.4L0,122.59v41.66Z"/><path class="cls-4" d="M76.69,151.61,229.12,11.71,241.88,0H193.82L0,177.88V222Z"/><path class="cls-5" d="M309.22,0H256.73l-106,97.28L0,235.62v48.17Z"/><path class="cls-6" d="M86.09,268.21,260.22,108.39,378.33,0H324.07L0,297.42v49.8Z"/><path class="cls-7" d="M81.75,333.18,248.7,180,416.14,26.29A5.2,5.2,0,0,1,419,24.91V0H393.18L343.83,45.29,169.88,204.94,0,360.84V408.2Z"/><path class="cls-8" d="M94.85,384.25,285.82,209,419,86.76V37l-90.35,82.92L161.53,273.25,0,421.5v49.8Z"/><path class="cls-9" d="M190.33,497.81,419,287.94V239.77L229.54,413.65,42.83,585H95.32Z"/><path class="cls-10" d="M219.16,528.27,419,344.87v-43.3L273.92,434.72,110.17,585h47.18Z"/><polygon class="cls-11" points="419 414.8 419 358.5 172.2 585 233.54 585 419 414.8"/><polygon class="cls-12" points="419 474.97 419 428.43 248.4 585 299.11 585 419 474.97"/><path class="cls-13" d="M419,537.59v-49L314,585h53.38Z"/><polygon class="cls-14" points="382.19 585 419 585 419 551.22 382.19 585"/><path class="cls-15" d="M136.89,485.05,331.7,306.27,419,226.14V158.46l-10.95,10L202.71,357,0,543v42H28Z"/><path class="cls-16" d="M105.59,432.12,310.93,243.68,419,144.49v-44.1l-42.3,38.82L185.55,314.64,0,484.93V529Q52.8,480.58,105.59,432.12Z"/><polygon class="cls-17" points="54.04 0 0 0 0 49.59 54.04 0"/></g></svg>