<svg id="Calque_1" data-name="Calque 1" xmlns="http://www.w3.org/2000/svg" xmlns:xlink="http://www.w3.org/1999/xlink" viewBox="0 0 419 114"><defs><style>.cls-1{opacity:0.15;}.cls-2{fill:url(#Dégradé_sans_nom_4);}.cls-3{fill:url(#Dégradé_sans_nom_4-2);}.cls-4{fill:url(#Dégradé_sans_nom_4-3);}.cls-5{fill:url(#Dégradé_sans_nom_4-4);}.cls-6{fill:url(#Dégradé_sans_nom_4-5);}.cls-7{fill:url(#Dégradé_sans_nom_4-6);}.cls-8{fill:url(#Dégradé_sans_nom_4-7);}.cls-9{fill:url(#Dégradé_sans_nom_4-8);}.cls-10{fill:url(#Dégradé_sans_nom_4-9);}.cls-11{fill:url(#Dégradé_sans_nom_4-10);}</style><linearGradient id="Dégradé_sans_nom_4" x1="25.08" y1="-13.5" x2="332.67" y2="409.87" gradientUnits="userSpaceOnUse"><stop offset="0" stop-color="#f2f2f2"/><stop offset="0.01" stop-color="#ebebeb"/><stop offset="0.11" stop-color="#b6b6b6"/><stop offset="0.22" stop-color="#888"/><stop offset="0.32" stop-color="#636363"/><stop offset="0.42" stop-color="#464646"/><stop offset="0.52" stop-color="#323232"/><stop offset="0.62" stop-color="#252525"/><stop offset="0.72" stop-color="#212121"/></linearGradient><linearGradient id="Dégradé_sans_nom_4-2" x1="39.92" y1="-17.44" x2="336.39" y2="390.61" xlink:href="#Dégradé_sans_nom_4"/><linearGradient id="Dégradé_sans_nom_4-3" x1="60.79" y1="-25.79" x2="352.16" y2="375.24" xlink:href="#Dégradé_sans_nom_4"/><linearGradient id="Dégradé_sans_nom_4-4" x1="107.27" y1="-47.65" x2="389.24" y2="340.45" xlink:href="#Dégradé_sans_nom_4"/><linearGradient id="Dégradé_sans_nom_4-5" x1="159.09" y1="-71.05" x2="432.13" y2="304.75" xlink:href="#Dégradé_sans_nom_4"/><linearGradient id="Dégradé_sans_nom_4-6" x1="205.49" y1="-82.24" x2="460.01" y2="268.09" xlink:href="#Dégradé_sans_nom_4"/><linearGradient id="Dégradé_sans_nom_4-7" x1="233.12" y1="-78.42" x2="465.81" y2="241.85" xlink:href="#Dégradé_sans_nom_4"/><linearGradient id="Dégradé_sans_nom_4-8" x1="268.02" y1="-83.34" x2="496.04" y2="230.51" xlink:href="#Dégradé_sans_nom_4"/><linearGradient id="Dégradé_sans_nom_4-9" x1="255.98" y1="-75.42" x2="475.78" y2="227.12" xlink:href="#Dégradé_sans_nom_4"/><linearGradient id="Dégradé_sans_nom_4-10" x1="10.39" y1="-7.55" x2="335.79" y2="440.32" xlink:href="#Dégradé_sans_nom_4"/></defs><title>opacité2</title><g class="cls-1"><path class="cls-2" d="M24.67,53.37,118.72,0H68.89L0,39.09V67.37Z"/><path class="cls-3" d="M58.44,68.4,179,0h-45.4L0,75.8v25.76Z"/><path class="cls-4" d="M41.3,113.83,76.69,93.74,229.12,7.24,241.88,0H193.82L0,110v4Q20.66,114,41.3,113.83Z"/><path class="cls-5" d="M94.33,113.41l15.64-.1L309.64,0H257.15l-106,60.16L56.77,113.71Q75.55,113.58,94.33,113.41Z"/><path class="cls-6" d="M179.32,113.17,260.64,67,378.75,0H324.49L125,113.24Q152.13,113.12,179.32,113.17Z"/><path class="cls-7" d="M245.06,113.34l3.64-2.06,167.44-95A6.87,6.87,0,0,1,419,15.4V0H393.18L343.83,28,193.71,113.2Q219.39,113.25,245.06,113.34Z"/><path class="cls-8" d="M278.63,113.1c11.92,0,23.84-.1,35.76-.22L419,53.52V22.73L328.65,74l-68.81,39.05Z"/><path class="cls-9" d="M419,112.8V97.65l-10.95,6.21-16.65,9.45C400.61,113.39,409.83,113.3,419,112.8Z"/><path class="cls-10" d="M367.16,112.89l9.78.2L419,89.22V62L376.7,86l-47.23,26.8C342,112.66,354.6,112.64,367.16,112.89Z"/><polygon class="cls-11" points="54.04 0 0 0 0 30.67 54.04 0"/></g></svg>